<?xml version="1.0" encoding="utf-8" ?><svg xmlns="http://www.w3.org/2000/svg" xmlns:xlink="http://www.w3.org/1999/xlink" width="2083" height="2083" viewBox="0 0 2083 2083"><path fill="#0459EF" d="M749.276 507.042L750.158 506.995C801.53 504.709 866.128 507.321 918.941 507.347L1275.49 507.369L1572.81 507.378L1663.45 507.337C1679.99 507.277 1696.02 506.523 1712.85 507.318C1725.28 506.046 1744.82 521.076 1743.07 535.212C1739.58 563.575 1724.92 597.568 1716.01 624.63C1709.13 645.556 1702.63 664.554 1695.98 684.503L1581.59 1027.38L1472.34 1355.25C1453.49 1411.95 1435.14 1468.84 1415.59 1525.3C1399.3 1572.36 1379.92 1576.02 1334.67 1575.81C1326.11 1577.32 1297.73 1575.91 1287.05 1575.9L1187.35 1575.86L877.856 1575.87L536.679 1575.85L433.781 1575.66C412.344 1575.73 390.535 1576.86 369.145 1575.54C361.76 1575.09 355.326 1572.87 349.803 1567.82C343.816 1562.35 340.265 1554.97 340.224 1546.82C340.119 1526.01 370.522 1448.25 379.102 1422.66L440.997 1236.87L600.986 757.129L643.374 629.723C653.287 599.423 665.271 548.604 685.379 523.305C698.89 506.306 728.709 507.214 749.276 507.042Z"/><path fill="#FEFEFF" d="M1272.16 707.607C1283.47 714.051 1321.77 744.762 1333.37 753.656L1455.97 847.544C1441.19 904.052 1422.65 962.114 1408.54 1018.43L1299.19 1071.85C1271.92 1085.19 1243.73 1099.49 1216.17 1112.09C1196.92 1122.98 1163.73 1137.85 1143.09 1148.14C1117.33 1128.49 1089.58 1108.17 1064.43 1088C1066.33 1074.94 1069.21 1061.57 1071.85 1048.61C1088.75 965.492 1102.77 881.449 1119.81 798.406C1132.55 789.995 1148.12 781.462 1161.35 773.419C1197.96 751.163 1235.8 730.234 1272.16 707.607Z"/><path fill="#0459EF" d="M1270.14 746.24C1280.75 753.716 1292.52 764.002 1303.2 772.018C1342 801.161 1380.08 831.225 1418.99 860.246C1415.39 868.973 1410.44 889.779 1407.51 899.763C1398.32 931.035 1390.94 964.654 1380.82 995.529C1358.03 1008.43 1321.03 1025.31 1296.57 1037.22L1146.2 1110.23L1136.22 1101.44C1150.25 1085.73 1170.15 1057.9 1183.58 1040.31C1208.85 1007.19 1235.53 973.563 1260.12 940.13C1269.29 941.698 1278.1 942.799 1287.3 940.933C1310.41 933.046 1326.08 916.704 1324.84 890.702C1323.78 868.663 1309.81 850.605 1287.92 845.71C1244.65 836.036 1209.68 881.133 1235.37 919.57C1192.5 971.894 1152.57 1029.24 1110.32 1082.34L1100.2 1074.5C1113.8 998.398 1130.17 922.521 1143.72 846.385C1145.34 837.285 1147.22 827.55 1149.66 818.669C1161.37 810.573 1173.73 804.259 1185.75 796.812C1213.45 779.661 1242.9 764.006 1270.14 746.24Z"/><path fill="#FEFEFF" d="M785.281 617.779C796.87 616.94 817.393 617.593 829.492 617.594L914.881 617.576L1199.61 618.122C1187.76 632.184 1172.76 647.914 1160.25 661.729L794.241 661.728C786.175 690.309 776.055 720.846 767.234 749.44L715.85 916.363L557.339 1430.76L1262.35 1430.71C1267.46 1410.03 1274.45 1387.82 1280.5 1367.25C1300.07 1301.91 1318.29 1235.04 1336.63 1169.27L1385.36 1147.47C1369.68 1215.86 1348.63 1283.13 1329.26 1350.55C1322.38 1374.5 1303.51 1451.24 1292.53 1466.83C1289.78 1470.74 1284.87 1472.48 1280.29 1473.23C1263 1476.07 1242.75 1473.62 1225.09 1473.57L1099.63 1473.53L637.985 1473.58C622.243 1473.58 527.313 1476.55 518.711 1469.82C513.374 1465.65 510.018 1460.32 509.486 1453.5C508.12 1435.97 562.647 1270.52 572.224 1239.54L648.03 993.167L722.92 749.49C733.117 716.332 743.068 683.08 753.115 649.873C758.971 630.52 762.981 619.448 785.281 617.779Z"/><path fill="#FEFEFF" d="M818.103 1075.45C847.224 1072.08 884.483 1087.33 903.844 1108.99C946.966 1157.22 943.516 1222.45 897.044 1266.33C908.467 1297.48 919.4 1329.13 930.443 1360.44C915.402 1356.47 899.682 1352.81 884.531 1349.08C876.368 1361.25 865.46 1371.9 856.376 1384C845.988 1358.41 835.975 1332.33 825.885 1306.6C825.122 1304.17 825.119 1304.26 823.653 1302.16C820.443 1303.7 794.501 1373.18 790.78 1382.39C780.149 1371.1 771.992 1361.33 762.792 1349.04C747.339 1352.92 732.52 1356.65 717.261 1361.21C729.004 1332.13 740.541 1296.36 750.94 1266.3C731.491 1246.26 717.589 1224.73 715.257 1196.41C709.799 1130.12 753.529 1081.61 818.103 1075.45Z"/><path fill="#0459EF" d="M813.772 1120.29C849.695 1114.41 883.553 1138.85 889.297 1174.79C895.04 1210.73 870.483 1244.5 834.518 1250.12C798.74 1255.7 765.184 1231.3 759.47 1195.54C753.756 1159.78 778.036 1126.13 813.772 1120.29Z"/><path fill="#FEFEFF" d="M1319.03 592.36C1326.78 597.184 1338.09 606.498 1345.54 612.25L1393.38 649.021L1555.25 772.881C1546.95 775.926 1532.51 783.617 1524.14 787.775C1514.75 791.895 1497.76 799.743 1489.15 804.742C1485.13 801.999 1481.22 798.702 1477.34 795.708C1420.14 751.535 1362.09 708.418 1305.13 663.939C1309.8 645.801 1316.18 611.184 1319.03 592.36Z"/><path fill="#FEFEFF" d="M829.235 746.771L969.507 746.665C1000.56 746.355 1036.29 745.565 1067.5 747.485C1077.07 748.075 1083.15 760.656 1081.57 769.607C1079.73 780.036 1074.96 782.834 1065.84 787.33C1041.91 789.511 1016.46 787.464 992.34 787.544C968.183 787.625 839.572 791.617 825.45 785.866C820.555 783.873 817.247 779.731 815.33 774.897C813.075 769.211 812.898 763.027 815.461 757.413C818.215 751.38 823.263 748.863 829.235 746.771Z"/><path fill="#FEFEFF" d="M1079.32 1306.25C1109.6 1302.49 1113.97 1323.83 1113.92 1348.12C1142.63 1340.67 1183.94 1336.55 1213.37 1340.14C1242.75 1343.73 1232.87 1380.24 1198.6 1373.67C1171.8 1368.53 1139.66 1379.06 1113.02 1381.73C1105.77 1382.45 1100.91 1381.1 1094.2 1378.54C1080.55 1369.46 1081.05 1359.6 1079.8 1344.57C1047.3 1356.58 1020.6 1370.59 990.481 1387.38C977.792 1393.1 963.937 1375.27 972.045 1365.22C993.063 1339.18 1048.01 1315.36 1079.32 1306.25Z"/></svg>