<?xml version="1.0" encoding="utf-8" ?>
<svg xmlns="http://www.w3.org/2000/svg" xmlns:xlink="http://www.w3.org/1999/xlink" width="500" height="500">
	<path fill="#0459EF" d="M172.85 121.834C188.781 121.487 204.77 121.762 220.708 121.762L310.21 121.761L377.995 121.762L400.503 121.785C403.771 121.786 407.069 121.601 410.332 121.725C411.976 121.787 413.617 122.087 415.041 122.953C416.666 123.94 418.043 125.889 418.38 127.771C418.453 128.18 418.358 128.75 418.32 129.157C417.889 133.691 413.202 145.918 411.552 150.868L395.872 197.896L358.362 310.397L346.29 346.649C344.047 353.393 341.934 360.213 339.502 366.889C338.709 369.065 337.864 371.201 336.422 373.041C334.075 376.037 330.799 377.678 327.059 378.154C323.434 378.391 319.695 378.239 316.057 378.23L296.602 378.198L234.978 378.195L135.863 378.197L103.695 378.204C99.0066 378.207 94.2906 378.371 89.6063 378.268C87.993 378.233 86.3588 377.947 84.967 377.088C83.2645 376.038 82.2226 374.279 81.8057 372.35C81.5857 371.333 81.6396 370.321 81.8943 369.314C83.9867 361.045 87.4986 352.006 90.2192 343.848L106.536 294.933L146.494 175.084L155.232 148.864C157.005 143.513 160.267 131.416 163.232 127.21C165.583 123.876 168.985 122.455 172.85 121.834Z"/>
	<path fill="#FEFEFE" d="M273.97 132.846C276.671 134.89 279.098 137.807 281.502 140.219L296.889 155.634L343.159 201.826L358.288 216.946C361.305 219.962 364.263 223.115 367.447 225.955L351.41 231.242Q343.775 233.716 336.177 236.302C322.428 222.057 308.131 208.25 294.121 194.255L274.548 174.688C270.9 171.04 267.319 167.272 263.535 163.766C265.013 160.019 266.192 156.109 267.471 152.288L273.97 132.846Z"/>
	<path fill="#FEFEFE" d="M246.596 180.763C247.8 181.193 313.387 247.458 319.459 253.26C315.476 261.17 311.938 270.55 308.401 278.801L288.22 325.796C285.126 326.603 282.043 327.829 279.009 328.848L260.185 335.164L195.942 356.502L163.67 367.279C160.156 363.346 156.167 359.695 152.428 355.968L132.737 336.367C134.345 330.182 136.705 324.05 138.727 317.986L150.158 283.728L165.675 237.154C168.494 228.677 171.115 220.067 174.215 211.691L219.42 192.42C228.479 188.555 237.63 184.834 246.596 180.763Z"/>
	<path fill="#0459EF" d="M243.415 198.001C244.959 199.273 246.392 201.016 247.803 202.454Q252.847 207.621 257.948 212.731L285.961 240.598C291.282 245.899 296.524 251.336 302 256.474C296.253 269.469 290.814 282.621 285.218 295.684C282.637 301.709 280.269 308.026 277.289 313.856C272.423 315.957 267.156 317.383 262.118 319.059L239.759 326.634L167.64 350.542C166.413 349.14 165.082 347.813 163.796 346.464L227.864 282.555Q228.805 282.969 229.779 283.299Q230.753 283.628 231.752 283.87Q232.752 284.113 233.768 284.266Q234.785 284.419 235.812 284.482Q236.838 284.545 237.866 284.517Q238.894 284.489 239.915 284.371Q240.936 284.252 241.943 284.044Q242.95 283.836 243.935 283.54C245.082 283.149 246.189 282.722 247.273 282.175C252.286 279.647 256.454 274.96 258.19 269.594Q258.36 269.067 258.503 268.532Q258.647 267.997 258.764 267.456Q258.881 266.915 258.971 266.368Q259.061 265.822 259.125 265.272Q259.188 264.722 259.224 264.169Q259.26 263.617 259.269 263.063Q259.277 262.509 259.259 261.956Q259.24 261.402 259.195 260.85Q259.149 260.299 259.076 259.75Q259.003 259.201 258.903 258.656Q258.803 258.111 258.677 257.572Q258.55 257.033 258.397 256.501Q258.244 255.969 258.065 255.445Q257.886 254.921 257.681 254.406Q257.477 253.892 257.247 253.388Q257.017 252.884 256.763 252.392Q256.524 251.93 256.262 251.48Q256 251.029 255.716 250.593Q255.433 250.156 255.128 249.734Q254.823 249.312 254.498 248.905Q254.172 248.499 253.827 248.109Q253.483 247.719 253.119 247.346Q252.755 246.973 252.374 246.619Q251.992 246.265 251.593 245.93Q251.195 245.595 250.78 245.28Q250.365 244.965 249.936 244.671Q249.506 244.377 249.063 244.104Q248.619 243.831 248.162 243.581Q247.706 243.33 247.238 243.103Q246.769 242.875 246.29 242.671Q245.812 242.466 245.323 242.286Q244.835 242.105 244.338 241.949C238.564 240.157 232.008 240.603 226.649 243.485Q226.188 243.738 225.739 244.013Q225.291 244.288 224.857 244.584Q224.423 244.881 224.004 245.199Q223.584 245.516 223.181 245.854Q222.778 246.192 222.392 246.549Q222.006 246.906 221.638 247.282Q221.27 247.658 220.921 248.051Q220.572 248.444 220.243 248.854Q219.913 249.264 219.604 249.69Q219.296 250.116 219.008 250.556Q218.72 250.996 218.455 251.45Q218.189 251.904 217.946 252.37Q217.703 252.837 217.483 253.314Q217.263 253.792 217.067 254.28Q216.871 254.768 216.699 255.265Q216.527 255.762 216.38 256.267C214.851 261.362 215.084 267.254 217.65 271.983C195.926 293.076 174.842 314.879 153.374 336.238C152.132 334.87 150.744 333.605 149.421 332.314L173.347 260.585C177.544 247.997 181.594 235.336 186 222.821C192.274 219.573 199.182 217.029 205.683 214.231L243.415 198.001Z"/>
</svg>
